<?xml version="1.0" encoding="UTF-8" standalone="no"?>
<svg id="svg2" xmlns:rdf="http://www.w3.org/1999/02/22-rdf-syntax-ns#" xmlns="http://www.w3.org/2000/svg" height="1029pt" width="1191pt" version="1.1" xmlns:cc="http://creativecommons.org/ns#" xmlns:dc="http://purl.org/dc/elements/1.1/" viewBox="0 0 1191 1029">
<g>
<path id="path4" d="m580.25 0h9.92c16.16 14.54 3.43 44.42 12 63.65 150.15 117.34 322.82 201.44 498.73 272.53 25.7-1.12 49.7-15.86 75.3-17.68 5.5 9.65 9.5 20.29 13.8 30.58-6.8-8.59-8.5-19.94-14.8-28.77-23 3.01-44.7 13.75-67.2 19.71-5.8 3.22-11.2-1.79-16.7-3.33-86.7-32.82-171.71-70.18-254.84-111.21 35.44 19.52 71.89 37.69 107.67 56.46-15.76-5.68-30.5-13.96-46.17-19.88 65.57 32.61 133.94 60.07 202.14 86.93 14.1 0.39 27.1-7.53 41-10.03-12.5 5.37-26.1 10.14-39.7 11.73-28.4-10.08-56.3-21.93-84.6-32.53 17.9 9.68 36.6 18.17 53.8 29.14 8.1 4.72 8 18.01-0.2 22.65-6.4 1.78-12.9 3.06-19.5 3.96 5.7-2.98 11.9-4.44 17.6-7.27 6.9-3.56 5.6-15.35-1.7-17.64-102.17-37.45-202.47-80.31-298.79-131.01-55.17-28.49-105.08-65.9-152.79-105.36-3.38-3.85-3.03 5.14-0.4 6.37 56.52 47.62 116.55 91.68 182.16 126.02 80 43.05 167.16 70.83 247.42 113.22-117.17-29.44-236.02-65.11-335.59-136.04-30.46-21.22-58.92-45.12-87.63-68.56 1.33 19.69 2.35 39.42 2.16 59.16-7.02 1.71-11.82-18.05-2.72-8.94-1.31-17.28-1.75-34.59-1.65-51.9-0.4-3.81-10.49-8.48-6.5-0.1 2.23 19.82-1.74 40.28 1.54 59.83 41.16 36.32 88.87 64.28 137 90.3 62.83 33.23 127.75 63.19 195.19 85.72 32.75-9.19 65.3-20.41 98.2-29.47 4.8-0.16 18.8-6.36 16.2-2.48-35 13.4-70.67 25.44-105.58 39.31-3.56 1.3-7.34 3.34-11.21 2.1-41.58-12.62-82.25-28.1-122.98-43.11 23.91 11.74 48.8 22.08 72.33 34.64 22.62 1.85 45.52 24.17 67.84 11.27 27.84-10.16 55.7-20.42 84.2-28.8-27.8 11.25-56.32 20.91-84.37 31.59-22.17 11.32-44.03-9.14-65.82-12.72 4.82 4.06 10.41 6.99 16.06 9.71 9.99 4.3 11.4 21.17 1.3 26.23-6.36 1.69-12.88 2.62-19.44 2.88 9.48-2.65 30.4-10.08 18.32-23.05-94.17-35.79-186.66-77.31-273.54-128.57 33.03 26 68.34 49.49 106.28 67.77 45.58 23.48 94.66 39.69 138.84 66 6.07 4.68 16.2-5.11 20.07-0.33-7.61 1.88-4.31 3.59 0.55 6.91-3.36-0.91-6.54-3.27-10.06-3.03-32.3 11.59-64.23 24.36-95.84 37.68-18.1-3.3-35.52-10.77-53.43-15.33 14.22 9 26.4 23.36 44.12 25 7.26-9.62 21.83-8.05 32.25-12.38 23.85-9.44 47.82-18.87 72.68-25.35-30.02 11.93-60.3 23.52-90.71 34.39-2.77-0.47-17.04 3.64-8.39 6.04 37.17-15.39 75.71-30.81 116.22-32.83 6.73 5.04 10.49 0.96 13.68-5.85-1.64 4.93-7.15 10.17-2.95 15.18 6.21-10.58 9.12-25.62 22.25-29.9 40.21-15.33 81.63-28.25 124.33-34.11 8.3 0.41 11.8 8.64 13.1 15.59 8.3-11.33 11.5-29.82 27.4-32.72 20.6-6.31 42.7-8.17 62.5-16.52 2.3-2.56 2.2 0.42 2.1 2.43-20.4 6.52-40.9 13.11-61.4 19.39-4 1.49-9.3 2.4-11.2 6.91-40.5 75.99-73.9 155.83-98.6 238.34-24.11 76.99-31.9 157.71-44.9 237-1.08 8.64-11.37 14.42-9.03 23.61 18.2 21.78 41.45 38.83 59.43 60.87-3 5.13-7.35 9.43-12.01 13.02-17-10.7-30.83-26.06-47.87-36.46-124.31-12.47-249.89-10.84-374.08 2.48-59.31 5.46-117.42 19.4-175.35 32.67 179.09-32.4 362.57-41.86 543.87-24.69 18.78 10.98 33.94 27.47 52.2 39.3 8.04 1.42 11.94-9.97 17.64-13.96 2.7-4.71 14.5-9.87 8.3-15.95-19.8-20.8-40.81-40.38-61.54-60.2 20.81-169.71 67.94-339.05 154.24-488.1 18.4-4.5 36.3-10.82 54.7-15.02-16.8 7.47-35.3 11.24-51.8 19.23-73.9 147.84-114.6 310.78-132.17 474.65 18.77 20.37 41.07 37.87 58.87 59.06 13.6 21.56-9.1 40.06-23 53.97-12 16.55-36.95 14.14-49.77-0.27-16.58-10.35-29.29-30.88-50.97-28.89-191.39-13.96-385.07-3.99-572.86 36.62-29.45 1.99-31.41 44.74-59.68 49.54h-3.52c-14.41-3.6-25.79-14.1-37.82-22.2-9.8-6.9-11.35-22.27-4.02-31.51 12.16-17.43 25.66-33.94 37.75-51.4 1.57-8.92-3.28-17.37-5.03-25.98-42.38-155.97-106.92-307.07-201.05-439.02-22.73-9.55-51.71-6.68-72.03-20.38v-6.14c7.49-10.88 4.19-41.96 24.46-34.95 23.1 1.62 49.69 20.88 70.33 2.34 165.83-90.93 324-199.71 453.12-338.88 0.87-18.14-4.98-36.44-1.86-54.38 8.43-8.51 23.43-2.95 34.2-6.5m-0.85 14.4c-6.24 1.03-12.56 1.5-18.84 2.17-1.33 16.47 3.83 33.07 3.14 49.69-4.49 7.12-11.42 12.26-16.71 18.75 6.45-3.6 15.23-1.52 19.87-8.12 14.29-13.46-0.39-34.83 3.73-51.14 1.43-2.03 7.06-0.61 4.02 3.65 2.2 14.73 3.05 29.7 4.27 44.43 3.72 10.67 16.03 5.07 24.19 7-22.94-9.43-14.36-35.96-18.53-55.3-1.45-3.49 1.39-13.71-5.14-11.13m-4.99 61.89c-7.77 3.82-6.64 9.06 0.61 11.58 7.83-1.78 5.35-10.35-0.61-11.58m22.83 12.55c93.93 73.5 198.64 134.63 308.64 181.33-99.69-47.66-196.09-103.6-286.49-167.56-7.3-4.54-13.21-12.48-22.15-13.77m-8.81 1.48c-3.25 1.1-5.99 3.39-8.27 5.89 6.13 40.86-0.72 82.18 3.35 123.13 0.9 7.68 7.68 14.83 14.75 8.02 0.28-3.23-6.4-6.93-6.09-11.65-0.63-28.97 0.25-58-0.3-86.99-1.37-3.28-10.59-6.97-4.61-9.41 8.13-1.6 0.04-13.48 7.02-16.2 5.24 0.26 9.02 10.03 14.57 5.02-4.6-5.18-1.74-2.59 2.89-1.51-5.09-6.65-15-13.83-23.31-16.3m-31.62 5.01c-3.89 2.64-7.77 6.17-9.54 10.59 6.82 1.78 13.09 5.11 19.78 6.84 4.09-5.46 0.5-22.16-10.24-17.43m55.79 11.08c16.2 16.19 39.37 26.49 58.34 39.65-18.78-13.85-38.7-26.87-58.34-39.65m-69.14 2.74c-41.6 41.93-85.24 81.84-130.51 119.79-50.28 45-108.11 80.37-162.91 119.12 48.39-26.9 96.18-55.3 140.78-88.23 54.96-40.35 103.61-88.36 151.53-136.64 4.44-3.43 1.66-9.58 1.11-14.04m24.08 10.79c-18.75 17.56-2.18 45.3-9.22 67.26-3.24-14.76-4.69-29.99-9-44.46-32.89 39.71-68.31 77.56-107.92 110.66-85.62 72.14-190.37 118.05-288.15 168.64 15.98 5.17 31.04-13.18 47.03-16.81-10.49 7.43-22.2 13.85-33.59 20.13 23.01 6.39 46.51 11.01 69.83 16.19 3.42 1.13 6.53-1.2 9.54-2.48 79.21-41.42 148.61-98.45 218.6-153.41 31.94-25.69 64.5-50.71 94.73-78.43 3.75-3.11 2.11-8.84 3.35-13.03 0.46 3.76 1.37 7.53 1.05 11.34-32.69 36.13-70.78 66.82-106.72 99.53 34.2-26.57 68.81-53.36 102.05-80.93-87.94 87.87-189.86 162.08-294.3 228.97-4.65 13.15 10.61 1.68 12.5-3.88 17.76-8.18 35.29-16.93 50.79-29.12 85.93-62.85 171.85-127.86 244.54-205.41-3.41-31.48-2.29-63.3-5.11-94.76m104.72 26.64c1.17 5.26 5.86-0.6 0 0m-53.68 58.68c-0.6 5.87 5.26 1.18 0 0m-46.21 14.07c-3.22 1.08-5.31 3.98-7.63 6.28 5.69 2.77 12.35-2.01 7.63-6.28m30.25 16.11c-2.61 0.26-6.56 1.53-2.79 3.81 22.97 13.32 45.7 27.32 69.11 39.84-14.74-11.99-31.9-21.11-46.48-33.52-6.33-3.56-11.44-12.84-19.84-10.13m-35 3.89c-4.76 2.18-8.66 6.64-11.64 10.75 8.23 3.04 13.86 4.7 21.86 7.94 2.16-5.25 1.15-22.36-10.22-18.69m22.9 5.82c6.88 34.8-0.47 70.03 1.73 104.97 4.2 3.13 8.63 10.31 14.48 8.07-18.87-25.22 9.13-67.99-12.25-89.8 8.67-1.07 13.38-16.25 3.42-17.02-3.5 22.24 3.76-6.47-7.38-6.22m275.38 1.74c4.75 5.75 7.82 1.35 0 0m-315.55 8.25c-35.83 35.03-73.21 68.68-112.93 99.28-30.6 24.38-67.78 38.95-97.39 64.59 78.15-40.28 154.64-87.73 213.92-153.44-1.5-2.86 0.4-9.78-3.6-10.43m334.51 0.88c9.62 8.28 12.66 3.07 0 0m-531.63 3.31c-5.29 2.18 2.74 3.65 0 0m-12 9c-5.29 2.18 2.74 3.65 0 0m237.27 0.44c-15.4 12.83-6.21 34.35-10.08 51.47-3.38-8.69-4.46-21.15-8.02-27.89-63.55 77.65-157.16 119.34-245.33 161.97 1.04 6.81 23.44-1.25 10.15-1.52 9.9 0.21 18.1-5.92 27.02-9.58-2.95 4.55-11.07 5.65-12.82 9.68 17.54 1.32 35.02 3.59 52.44 6.02 8.52-2.66 15.32-9.48 24.06-11.83-4.2 8.1-14.94 10.96-20.84 17.71 7.52 2.47-8.22 5.6-2.15 0.86-13.35-3.83-28.56-4.89-42.44-8.2-6.79-0.98-16.61-5.3-21.58 1.71 22.26 4.44 44.43 9.65 66.76 13.49 62.97-38.45 119.55-86.42 173.44-136.58 3.94-2.98 0.81-8.99 2.63-13.02 5.62 13.73-8.34 22.52-15.71 31.96-18.99 22.33-41.59 41.16-61.93 62.1 26.42-13.97 44.26-38.48 63.68-60.31 5.26-10.78 28.07-3.68 23.44-19.02-2.13-22.93-1.8-46.23-2.72-69.02m-241.27 2.56c-5.29 2.18 2.74 3.65 0 0m-3.67 3.19c-66.05 47.55-135.22 90.85-206.09 130.84 1.14 2.44 7.25 2.52 9.66 0.55 68.62-31.6 125.78-81.84 188.08-123.68 2.15-1.45 9.09-6.24 8.35-7.71m288.67 20.68c-0.62 15.44 0.15 30.98-0.98 46.41 46.52 48.26 109.52 74.85 171.29 97.83 3.33 2.62 6.98 0.59 10.25-0.59 26.05-10.48 53.65-17.71 80.2-25.81-52.38-9.96-104.46-23.71-153.07-45.96-35.67-16.34-67.46-39.63-98.03-63.93 0.57 13.48-0.57 26.92-1.1 40.37-5.11-12.03 3.23-40.19-8.56-48.32m-48.49 61.22c-11.03 2.12-15.86 13.75-23.31 20.9-6.13 4.35 4.46 6.59 6.1 2.23 6.51-9.91 17.09-22.78 30.45-16.38-1.14-7.33-6.47-9.16-13.24-6.75m35.85 9.04c-5.23-0.21-0.49 8.14 3.12 6.12 7.23-1.76 12.16 5.1 18.21 7.53-6.5-5.25-12.29-15.13-21.33-13.65m-11.61 8.27c-6.53 10.71 5.33 24.12 1.71 30.16 7.15-0.62 2.85-8.67 2.55-13.11-2.75-5.42 2.61-13.99-4.26-17.05m-20.53 1.45c-6.32 3.47 2.21 6.22 5.74 6.57-0.48-3.05-1.43-8.3-5.74-6.57m-4.54 5.96c-13.21 6.06 6.38 12.71 0 0m490.79 0.19c-40.1 15-81.25 27.88-120.41 45.01-42.51 82.17-61.64 173.53-85.86 262.11-2.03 14.51-5.66 30.87-4.75 44.39 12.81-59.5 33.14-116.98 51.15-175 13.94-40.64 26.09-82.15 45.12-120.81 2.05-6.61 10.06-6.21 15.25-8.82 28.74-10.5 58.4-18.21 87.9-26.11-27.8 16.41-58.01 29.27-86.06 44.96-21.49 58.56-35.29 119.71-56.62 178.36-14.17 43.03-30.12 85.7-39.02 130.24 16.16 20.78 33.33 40.76 50.06 61.09 3.3 0.13 2.18-4.97 2.16-7.2-9.55-12.68-21.11-23.83-30.8-36.41 11.88 8.35 21.46 24.02 32.63 29.99 30.54-141.97 56.23-289.92 137.15-413.65 4.3-1.48-4 8.99 1.6 5.77 3.6 0.09-1.1-8.13 2.6-3.84 3.8 4.68-3 4.97-6 6.34-39.5 76.83-68.48 159.47-81.84 244.99 24.24-82.03 54.84-166.23 98.14-241.68-3.3 2.47-4.9 6.5-7.8 9.38 6.2-8.26 13.9-32.03-4.6-29.11m-517.04 0.73c-32.56 44.59-87.29 61.57-127.39 97.4-1.66 2.58-4.5 13.42 1.51 7.65 9.21-11.99 22.62-19.36 36-26.31 17.85-12.24 34.01-26.86 51.42-39.64-9.06 10.52-20.42 18.95-30.13 28.89 24.7-12.63 50.26-24.01 72.67-40.61 0.04-1.98-0.32-3.94-0.71-5.86-10.95 6.34-20.59 14.8-31.91 20.52 9.07-14.21 29.26-24.01 28.54-42.04m35.74 1.42c-4.08 1.97-9.4 7.34-2.14 8.26 6.26 4.16 3.96-7.11 2.14-8.26m28.51 0.82c-4.02 9.19 4.19 19.85 5.07 6.07 11.49 5.7-0.1-3.78-5.07-6.07m26.24 18.08c-4.28 6.67 5.93 10.23 9.89 13.68 27.98 20.92 64.35 25.7 92.14 46.8 6.3-0.58 19.52-7.67 16.34 4.75-0.6 5.93-5.97-2.85-9.18-1.23-22.74 9.16-45.58 18.77-66.46 31.68 24.04-2.76 44.09-18.15 67.95-23.26-18.43 9.65-39.64 16.21-58.86 25.26 1.54-1.52 3.27-2.84 4.91-4.27-20.27 7.17-40.16 15.61-58.86 26.27-4.93 3.59-15.73 2.76-15.74 10.98 50.16-18.6 100.56-54.77 155.54-51.29 3.88-5.8 7.69-11.68 11.08-17.77-4.55-1.07-9.02-2.26-13.62-2.95 3.6 14.28-12.23 23.89-25.22 18.55 9.23-3.04 26.62-8.7 17.21-20.85-44.03-14.37-87.43-33.38-127.12-56.35m-37.86 3.92c2.98 37.24 11.88 74.34 9.12 111.84-3.16 3.49-2.77 11.4 3.17 10.55 6.04-5.7-4.36-11.18-1.59-17.86 1.29-32.63-0.57-65.24-5.09-97.56-0.71-2.19-5.09-8.04-5.61-6.97m-476.85 2.19c-6.94 5.36-25.06 7.55-21.33 19.44 9.08-1.24 10.84-12.5 19.84-14.07 2.68 0.03 5.36-6.73 1.49-5.37m2.94-0.11c-3.11 8.24 10.72-3.04 0 0m451.81 11.87c2.9 23.95 11.07 50.87 3.85 73.56-8.26-19.04-14.23-42.5-22.95-61.65-32.47 18.65-67.06 33.28-99.95 51.19 0.91 8.36 14.7-4.18 11.04 2.63 38.25 5.5 77.11 9.53 113.7 22.85 0.31-14.4 3.18-5.37 2.95 3.22-23.55-3.26-47.08-6.76-70.84-8.14 20.34 8.82 45.02 10.61 66.08 17.15-20.17-2.24-40.14-6.17-60.35-8.11-1.94-1.28 2.48-0.4 2.22-2.04-19.37-2.07-38.37-7.5-57.97-7.27-6.99-3.77-4.49 1.06-3.9 3.41 41.1 7.42 83.02 10.7 123.86 19.66 3.71-0.68 9.85-0.56 11.05-4.89-7.65-35.84-2.44-72.78-8.82-108.79-3.68 1.86-6.87 4.55-9.97 7.22m-550.87-1c-0.91 2.15-1.63 4.42-1.96 6.74 17.51 2.96 35.56 9.14 53.78 11.91 3.73-0.54 10.73-0.42 12.02-4.8-21.05-4.83-42.58-9.24-63.84-13.85m585.69 1.91c0.18 5.15-1.52 13.16 0.86 16.69-0.77-4.54 3.62-15.01-0.86-16.69m-501.61 10.99c-7.88 3.05 3.7 2.83 0 0m795.05 4.22c-33.08 12.13-66.05 24.63-99.05 36.99-6.1 1.79-7.64 8.77-10.44 13.61-25.78 48.88-37.89 103.78-50.09 156.82-12 15.09 8.98 27.12 15.04 39.28-8.99-8.89-22.44-17.01-25.75-28.53-13.36 1.82-0.36 17.98 6.94 19.78-2.09 5.02 10.05 5.8 13.78 9.75 21.82 19.54 41.56 41.47 59.23 64.84 1.18 3.69 10.2 6.33 8.92 0.11 1.94-7.39-7.62-4.31-10.26-8.84-22.6-27.69-44.97-56.08-66.53-84.33 15.5-59.04 35.68-117.26 62.27-172.3 26.86-12.22 55.43-20.8 84.4-26.44 3.37-3.89 5.24-8.83 8.17-13.04 6.65 2.07 9.54 9.96-0.68 9.2-15.34 30.23-25.68 63.56-33.49 96.69 14.18-35.59 27.04-73.12 46.12-106.98 3.24-4.74-4.98-7.46-8.58-6.61m-274.46 1.84c-1.83 21.85-3.42 44-0.91 65.82 33.08-10.34 63.3-28.59 96.78-37.96 2.45-0.98-0.53-1.55-1.66-1.37-28.71-2.51-58.57-6.19-83.84-21.04-3.4-1.85-2.89 2.83-3.21 5.27-0.96-4.28-1.12-11.42-7.16-10.72m-514.25 2.17c-1.83 0.02-7.43 1.88-3.38 3.27 41.37 10.3 84.74 15.4 127.91 22.07 3.95 0.62 12.11 4.35 13.67-1.49-4.77-6.92-12.09 1.18-18.28-1.68-39.91-7.41-80.32-20.08-119.92-22.17m-23.32 2.02c-8.84 0.72-3.25 7.9 0.86 11.8 1.1-3.38 5.38-12.54-0.86-11.8m822.98 0.56c-27.47 58.47-46.48 120.87-61.93 183.54-4.08 41.33-20.26 81.03-21.05 122.58 7.21-4.74 8.48-13.54 9.18-21.44 6.55-65.03 23.81-128.34 41.5-191.04 4.82 0.92-2.54-6.68 3.06-2.93 7.69-30.84 23.46-60.12 29.24-90.71m-13.31 4.11c-4.42 7.61 9.37 0.81 0 0m-799.16 5.97c-1.19 3.88-0.87 8.29 1.03 11.9 78.1 114.69 137.24 241.55 188.06 370.13-44.62-135.34-106.29-266.3-189.09-382.03m706.62 0.33c-4.5 1.39-9.05 2.82-13.2 5.07 1.67 1.79 15.99-4.43 13.2-5.07m80.98 6.16c-21.29 13.4-44.17 25.31-64.5 39.58-15.7 45.65-33.05 90.75-49.89 136.01-1.19 6.54-7.99 13.77-3.38 20.01 14.27 18.65 28 37.72 42.65 56.08 2.93-3.67 0.59-17.21-2.88-10.46-2.48-11.7-13.99-18.51-19.67-28.63 6.83 5.31 12.49 11.89 18.47 18.09 4.39-28.26 5.55-57.99 17.46-84.59 1.23-2.05 1.5 1.39 1.18 2.27-3.49 28.04-10.47 55.49-15.83 83.21-0.87 3.07 2.74 5.03 4.22 7.26 20.12-80.88 32.62-165.66 73.52-239.47-0.34 0.16-1.01 0.48-1.35 0.64m-745.3 1.44c29.28 9.74 63.21 15.9 93.84 24.86 14.06 20.95 26.86 42.85 39.24 64.86 40.82 76.26 87.66 152.05 102.51 238.67-27.83-61.29-63.52-119.29-97.69-177.49-20.79-34.56-39.44-70.39-60.58-104.72-16.72-4.99-33.59-9.56-50.39-14.28 12.99 21.24 25.76 42.86 34.8 66.15-13.78-22.18-26.16-45.31-39.46-67.8-1.7-0.42-6.77-2.82-6.02 0.3 66.11 121.75 124.16 249.08 167.49 380.37 18.35-21.55 35.42-45.08 54.65-66.26 3.61-2.59 1.45-7.22 1.58-10.7 1.18 2.91 2.66 6.33 1.95 9.45-18.36 25.35-36.28 51.04-54.01 76.84-1.39 1.55-1.34 4.76 0.63 5.64 22.58-27.07 43.01-57.05 67.23-82.02-20.53-93.88-73.92-175.23-115.02-260.81-12.71-22.36-27.06-44-42.79-64.3-32.01-8.73-65.3-12.9-97.96-18.76m127.18 1.43c-2.15 0.66-4.16 1.91-5.51 3.73 2.26 5.57 12.38-3.1 5.51-3.73m479.98 0.83c-8.96 3.09 6.67 4.92 0 0m34.9 1.94c-3.38 7.94-14.46 17.01-9.28 25.93 5.09-7.2 7.56-16 12.76-23.21 2.33-2.66-1.64-2.45-3.48-2.72m-532.19 6.75c4.19 12.58 9.72 5.82 0 0m25.77 0.52c-14.16 3.71 6 6.08 11.41 7.36 6.87 3.85 10.48-4.93 14.35 1.96 28.91 3.5 57.87 6.93 86.59 11.88 4.69 1 9.08 6.88 13.76 2.4-4.88-9.19-17.27-2.08-25.29-5.7-34.15-2.76-66.88-17.43-100.82-17.9m-12.5 12.02c-3.95 10.12 9.96 17.5 12.81 26.6 6.83-8.2-9.38-21.08-12.81-26.6m140.83 0.82c-3.78 2.67 3.79 2.64 0 0m352.32 1.24c-42.88 16.27-84.98 34.97-126.35 54.72-3.49 4.89 5.62 9.5 6.97 13.64 10.82 16.27 24.09 30.59 36.01 45.99-20.92-17.45-38.05-40.3-61.19-54.69 27.82 38.38 73.29 62.86 99.48 103.66 7.12 0.18 4.27-8.87-2.1-8.16-29.26-27.25-47.55-64.11-70.29-96.72 37.36-7.17 68.05-32.38 105.14-39.68 4.22-2.63 5.97-14.68 11.9-9.4 6.5 7.09 12.45-14.79 0.43-9.36m-478.1 1.78c-1.15 5.73 5.43-1.64 0 0m3.75 0.45c5.6 6.12 11.8-0.5 0 0m23.98 4.04c0.74 2.45 0.65 6.14 4.95 5.23 22.96 6.87 46.96 12.51 69.98 17.53 35 47.37 71.32 97.64 79.93 157.54-28.31-46.83-60.92-91.41-95.5-134.01-11.09-3.06-22.19-6.09-33.25-9.26 7.13 13.87 13.41 28.26 17.8 43.25-8.72-13.52-14.31-29.18-21.46-43.67-1.9-2.09-5.11-2.36-7.68-3.25 29.72 74.59 63.23 147.81 92.39 222.51 15.75-19.34 32.54-42.52 50.99-61.49 3.34-2.37 0.21-6.85 0.56-9.86 2.37 1.64 2.63 5.83 3.8 8.61-17.41 24.32-34.42 48.99-50.49 74.23-1.47 1.76-0.86 4.25 0.62 5.81 21.52-23.82 35.9-54.06 61.23-74.04 5.31-9.39-4.71-17.69-9.23-24.77-12.94-28.6-26.42-57.06-35.88-87.06-7.51-22.16-27.98-36.46-35.89-58.09-5.95-6.33-9.96-17.26-20.28-16.74-24.44-2.8-48.17-9.59-72.59-12.47m461.34 0.25c-13.81 27.26-23.8 56.32-31.54 85.83-6.41 20.96 0.72 45.38-11.85 64.56-3.36 9.55 8.02 2.73 7.4-2.04 3.48-32.21 10.62-63.84 17.7-95.4 2.32 0.35-1.77 8.19 1.07 5.02 3.58-14.07 9.59-27.37 14.92-40.83-9.17 4.38 6.57-12.55 2.3-17.14m-13.35 3.99c-4.69 7.58 7.86 0.97 0 0m-332.76 2.25c-5.66 1.12-3.94 5.3 0.65 6.42 9.24-4.47 21.99 3.66 29.11-1.52-9.6-1.58-20.09-3.3-29.76-4.9m-15.88 1.18c-9.33 4.4 1.69 6.61 0 0m348.07 1.86c-9.91 12.78-13.92 31.4-17.61 47.44 6.52-14.22 12.36-31.66 20.19-46.5 1.56-2.27-1.34-1.15-2.58-0.94m-342.5 5.78c-4.08 3.78-0.34 8.55 2.29 11.85 2.39-3.55 2.08-10.49-2.29-11.85m-133.79 3.7c19.67 31.22 36.79 64.23 54.73 96.3-11.2-32.08-26.47-62.59-45.18-90.94-1.59-3.98-6-4.43-9.55-5.36m151.85 4.55c-6.99 5.63 8.59 3.34 0 0m7.93 9.75c-9.56-7.56-2.62 10.07 0 0 4.05-3.19 7.63-10.05-1.45-8.8-5.35-1.7 1.23 6.38 1.45 8.8m24.89-4.97c0.57 3.64 1.79 7.19 3.52 10.45 27.15 8.32 60.58 1.43 84.39 17.54-23.62 2.78-52.25 3.34-75.69 6.88 6.67 28.34 13.17 56.98 21.83 84.88 7.96-5.45 0.79-14.84-1.2-21.79 4.22 2.17 6.17 15.37 10.66 8.36 15.89-27.78 34.98-53.59 57.55-76.32-12.39-5.26-2.31-4.04 4.81-2.09-14.74 23.26-30.82 46.05-40.83 71.93 21.97-20.11 30.53-50.23 51.99-71.02-8.31 14.15-18.49 27.13-26.77 41.29 11.49-11.02 17.91-26.83 27.96-39.2 5.07-4.16 2.15-12.47-3.77-13.67-37.96-6.83-76.14-12.69-114.45-17.24m270.51 5.29c-10.68 16.79-27.69 27.23-47.73 28.3-0.47 15.31 8.23 31.24 16.47 44.31 4.35-5.86 1.76-12.76-2.03-18.17 8.84 3.05 10.74 11.43 14 19.17-8.36-10.87-8.53 11.45-0.92 14.16 5.57-28.52 9.05-63.39 20.21-87.77m-153.53 0.29c6.14 3.19 9.46 9.19 9.61 16.1 4.32-3.05 9.26-4.86 14.47-5.71-5.72-8.22-14.95-8.84-24.08-10.39m22.41 18.65c-4.25 1.22-8.47 3.28-11.68 6.35-23.54 34.16-47.03 68.26-65.5 105.46 26.41-27.26 55.12-52.31 79.98-81.04 26.72 29.61 62.31 50.51 85.42 83.51 5.46 3.2 19.43-0.08 15.92 10.38 9.01 4.86 12.6-3.38 6.04-8.62-39.43-28.19-68.01-69.32-107.39-97.08-15.08 18-30.29 36.96-47.9 52.94 12.4-21.62 24.79-43.6 39.71-63.45 5.79 1.12 12.93-7.32 5.4-8.45m-164.31 7.58c9.44 16.13 18.26 32.62 26.92 49.16-2.77-18.9-12.87-36.56-26.92-49.16m12.08 2.94c2.33 4.95 2.91 11.18 6.9 15.18-1.7-5.05-2.11-12.72-6.9-15.18m157.38 60.52c-14.83 13.02-31.78 23.36-46.83 36.15 8.37 1.4 18.3-5.79 25.58-0.69-9.15 5.02-23.15 2.54-26.22 15.16 37.21-8.35 75.72-15.1 113.88-9.91-19.07-10.87-44.71-15.83-59.28-34.74-2.31-1.6-3.8-7.25-7.13-5.97m-78.01 21.06c-10.42 11.81-21.1 24.07-29.21 37.67 14.99-5.27 22.35-27.19 29.21-37.67m31.03 21.89c-6.74 1.46-14.27 3.81-18.01 10.07 4.06 4.14 23.08-8.7 18.01-10.07m-75.8 5.95c-0.09 3.4 1.44 12.18 6.53 9.01 4.51-5.23-2.03-7.59-6.53-9.01m171.22-0.33c12.12 0.73 29.55 3.76 42.08 2.09-11.07-4.65-28.71-0.94-42.08-2.09m43.6 1.04c0.73 7.45 13.03-2.01 0 0m-23.24 4.87c4.14 3.56 15.54 0.72 20.72 4.21-21.91-2-44-1.37-65.93-0.14-0.38-3.97 11.68 0.68 11.76-3.03-27.41-0.21-56.31 4.82-80.62 15.15 44.9-9.12 91.04-11.83 136.74-9.96 5.66-1.08 13.97 2.72 17.36-3.59-13.17-1.96-26.71-1.59-40.03-2.64m44.77 3.27c-3.14 8.39 10.25 1.17 0 0m-214.44 5.46c-3.76 0.92-9.62 1.34-7.84 7.26 3.76-0.26 12.49-2.63 7.84-7.26m-19.5 1.64c-0.36 2.84-0.26 5.53-0.16 8.45 6.12 3.4 5.08-11.33 0.16-8.45m167.43 8.3c-41.7 3.73-85.32 4.93-124.51 20.63 68.36-7.61 137.44-13.29 206.19-7.86 20.46 17.68 37.47 39.22 54.85 59.74 3.17 2.17 23.83 3.04 14.82 5.83-10.25-1.01-0.75 5.66 2.51 1.64-1.89 7.14-8.17 3.87-9.46-1.76-30.4-5.65-62.08-3.25-93-3.77 29.18 2.32 63.64 1.87 92.97 7.05-27.62-0.62-57.98-3.99-83.84-1.06 34.13-1.59 67.75 5.05 101.7 6.93 7.18-16.14-14.92-14.77-21.56-24.17-20.28-18.17-36.12-40.88-55.46-59.67-28.06-4.14-56.85-4.75-85.21-3.53m-143.58 2.99c-2.54 0.21-4.95 1.12-7.22 2.22 5.88 10.99 21.45-0.86 29.08-1.82-7.32 1.49-14.83 2.68-21.86-0.4m-17.18 4.79c-9.17 0.3-15.28 7.62-19.85 14.62-16.36 24.28-35.86 46.25-52.77 70.13-4.54 4.91-9.23 11.84-6.25 18.81 10.73 0.87 10.19-11.78 16.55-16.66-7.26-8.94 1.95-9.73 9.94-10.64 17.31-18.46 33.52-37.97 50.89-56.36 8.44-4.4 18.59-3.55 27.74-5.39-22.25-11.9-39.11 7.03-50.86 23.35 4.1-8.5 10.03-15.99 14.85-24.1 2.9-7.77 22.93-5.19 9.76-13.76m-270.94 1.75c30.36 73.97 55.5 150.32 75.86 227.65-14.52 20.68-30.18 40.61-44.71 61.29 6.47 7.29 15.96 11.57 24 16.98 12.78-13.19 22.79-29.26 34.81-43.27 7.59-3.3 16.15-3.55 24.07-5.84-7.79-3.23-19.79-3.67-27.59 1.4-9.36 14.79-21.61 26.91-32.24 40.69-5.26-3.03-10.13-6.72-15.04-10.24 10.83-18.6 19.37-40.77 38.02-53.62 3-2.85 5.14-7.13 3.23-11.31-9.1-34.18-19.35-68.09-30.45-101.64 13.85 31.58 23.4 66.49 34.29 99.7 7.78-9.25 1.86-20.2-0.94-30.01-24.25-65.32-52.56-129.48-83.31-191.78m153.03 1.95c9.14 22.38 16.32 45.56 20.67 69.37 0.93 5.35 3.5 13.56 10.13 13.44 2.99-5.19-7.56-6.91-5.83-13.68 2.09 3.66 6.49 13.41 11.13 5.84 8.53-7.8 2.29-9.28-1.86-3.16-0.24-6-9.92-5.65-4.67-11.12-8.13-20.9-17.77-41.63-29.57-60.69m337.78 21.54c-69.72 5.68-139.82 7.04-209.37 14.52-13.74 13.61-27.34 28.2-40.07 42.96 8.22 3.38 23.87-18.66 12.03-2.65 100.88-12.09 206.97-34.26 309.78-16.17-15.4-13.2-33.68-23.85-50.09-36.11-5.99-5.88-15-2.32-22.28-2.55m130.94 22.05c-10.9 8.48-8.16 22.53 1.32 30.49-5.57-4.64-11.97-10.06-11.65-18.05-13.29 2.09-4.58 18.81 3.62 22.23 16.46 2.12 25.29 18.05 36.36 28.46 16.96 16.38 31.23 36.21 46.94 53.11 8.33-11.14-17.7-16.26-19.05-28.05-19.87-23.77-40.21-47.22-59.86-71.19-0.46-5.29 3.68-14.16 2.32-17m-160 25.98c-42.71 0.58-85.2 7.23-126.62 16.45 66.35-8.03 133.17-13.72 200.06-13.02-24.62-3.27-56.01 0.63-80.98-0.83 12.2-1.52 24.47-2.36 36.77-2.25-7.55-2.49-19.92-0.55-29.23-0.35m-249.16 6.68c-1.96 0.76-7.32 0.74-4.33 3.66 1.43 6.48 9.65-6.3 4.33-3.66m-37.63 3.84c2.08 7.86 2.1 16.02 3.12 24.04 6.39-3.56 7.12-21.73-3.12-24.04m154.85 6.08c1.71 3.89 4.17-2.65 0 0m155.95 0.42c-76.39 4.22-153.66 9.14-227.99 28.25 39.07-4.75 78.31-8.05 117.58-10.69 79.86-4.08 161.43-14.89 240.54-0.93 23.5 24.05 45.74 49.34 67.98 74.57 6.21 1.02 12.57 1.6 18.42 4.15-1.82-7.92-4.11-15.71-14.69-14.29-28.22-21.09-48.11-51.69-73.69-75.56-42.1-7.54-85.52-6.48-128.15-5.5m-187.95 4.58c1.71 3.89 4.17-2.65 0 0m-6 1c1.71 3.89 4.17-2.65 0 0m-7.98 1.33c-15.87 2.5-31.78 4.75-47.65 7.27-2.67 0.38-4.51 2.62-5.29 5.07 19.19-5.17 39.39-8.3 58.3-12.92-1.34 0.15-4.02 0.44-5.36 0.58m-57.21 8.77c-6.8 5.33 6.91 0.9 0 0m-5.32 1.09c-8.17 2.51-17.63 0.61-25.21 4.62 5.76 10.94 18.37 0.58 26.92-0.07 4.06 0.38 0.64-5.69-1.71-4.55m-154.32 7.71c8.14 24.27 16.09 48.67 23.69 73.14 2 4.89 4.39-5.36 2.68-6.47-8.19-22.31-15.63-45.68-26.37-66.67m116.38 0.31c-4.29 1.02-8.27 3.33-11.51 6.3-23.73 31.81-47.68 63.49-72.36 94.58 1.33 4.42-0.04 13.31 5.43 13.64 0.88-7.13 11.12-11.63 6.26-18.88 1.78 1.38 4.15 6.55 5.33 1.61 6.07-7.4-5.01 0.08-7.6-4.78 4.33-3.39 11.35-0.78 15.42-4.61 18.6-22.39 37.52-44.52 56.16-66.87 4.56-6.66 13.32-5.58 20.08-8.14-16.05-11.45-26.29 8.54-35.18 17.98 5.89-9.91 11.85-22.42 24.5-24.25-1.98-2.02-3.11-7.24-6.53-6.58m364.39 7.19c-37.41 1.48-74.69 5.05-112 8.01-79.76 6.78-160.47 6.21-239.29 21.42-17.6 19.09-34.49 39.07-51.05 59.02 12.5-0.14 17.04-14.1 25.82-20.92-3.14 7.07-9.86 11.82-13.1 18.87 170.87-30.04 346.45-57.8 519.43-28.31 2.43 1.2 3.38-0.96 1.33-2.42-23.53-18.58-46.85-37.45-70.33-56.08-20.25-0.25-40.58-0.73-60.81 0.41m162.08 21.98c-2.07 6.33-8.05 10.77-6.66 18.22 9.6 1.42 4.62-16.09 6.66-18.22m-4.44 28.9c-1.23 4.52 4.52-0.08 0 0m-2.47 5.56c3.41 11.04 9.77 5.46 0 0m-224.16 6.58c-52.01 0.06-103.92 7.57-154.65 17.42 125.04-15.23 251.48-16.46 376.97-6.18 2.91 1.74 8.71-1.07 6.78-4.75-32.09-2.82-64.3-5.38-96.52-6.22 16 3.47 39.05 1.79 55.71 6.2-54.56-3.79-109.21-5.98-163.91-5.08 4.06-3.81 16.89 1.64 21.01-2-15.13 0.09-30.3-0.6-45.39 0.61m-386.41 7.48c0.4 4.73 3.34 15.16 7.61 5.68 6-6.39-3.86-4.13-7.61-5.68m621.56 0.22c0.53 3.92 8.74 5.9 13.3 7.72-3.23-4.09-7.26-9.82-13.3-7.72m-3.47 3c-0.21 5.03 5.05-1.65 0 0m-391.63 6.88c1.71 3.89 4.17-2.65 0 0m-118 19c1.71 3.89 4.18-2.65 0 0m-5.86 1.33c-16.09 2.37-32.05 5.6-48.13 8.07-3.78 0.66-9.34 1.06-10.61 5.6 19.95-4.55 39.9-9.2 60.02-12.93 2.14-0.39 7.62-3.06-1.28-0.74m-63.42 10.77c-8.88 3.22 5.47 3.9 0 0m-6.37 0.94c-8.38 1.95-17.17 1.77-25.43 4.17 0.45 11.19 35.47 2.29 25.43-4.17m-40.53 8.15c-15.01 3.94-18.69 22.47-28.53 32.55-1.76 4.36-12.67 12.1-4.01 14.97 11.06-14.4 21.17-29.98 33.12-43.85 1.3-1.57 2.91-5.38-0.58-3.67m81.18 3.81c1.71 3.89 4.18-2.65 0 0z"/>
<path id="path6" d="m558.27 103.67c5.84-0.68-2.18 6.17 0 0z"/>
<path id="path8" d="m444.39 144.39c12.48-10.16 23.87-21.64 36.81-31.22-115.72 118.91-257.92 208.57-402.2 288.74 127.15-77.52 253.16-158.93 365.39-257.52z"/>
<path id="path10" d="m661.61 242.33c47.13 24.49 97.02 45.85 141.25 74.8-50.03-18.44-96.2-46.69-141.25-74.8z"/>
<path id="path12" d="m568.04 247.29c6.92-0.87-2.13 7.49 0 0z"/>
<path id="path14" d="m644.57 356.32c28.65 14.53 57.41 28.93 85.51 44.53 1.29 0.52 7.34 4.41 2.98 4.14-32.41-9.94-61.39-28.77-88.49-48.67z"/>
<path id="path16" d="m1055.9 358.9c8.2 0.79 4.7 6.02 0 0z"/>
<path id="path18" d="m327.49 376.48c-22.36 22.76-57.18 41.73-87.36 58.3 3.42 2.97-1.77 2.9-3.93 3.45 0.94-2.07 4-6.41-2.63-4.02-12.33-1.82-24.58-4.27-36.78-6.77 13.64-1.01 27.08 3.13 40.69 3.43 30.52-17.23 59.11-37.86 90.01-54.39z"/>
<path id="path20" d="m74.97 403.96c0.17-1.74 2.72-1.56 4.03-2.05 2.87 3.86-1.46 3.03-4.03 2.05z"/>
<path id="path22" d="m74.97 403.96c3.15 4.13-5.36 0.74 0 0z"/>
<path id="path24" d="m1063.5 410.47c-19.1 39.7-37.8 86.67-54.7 129.37 13.7-44.79 31.6-88.73 54.7-129.37z"/>
<path id="path26" d="m526.96 455.14c-8.78 10.24-22.35 16.21-34.98 20.86 10.28-8.82 23.08-14.4 34.98-20.86z"/>
<path id="path28" d="m65.24 465.56c5.1-0.2-0.32 5.06 0 0z"/>
<path id="path30" d="m67.98 469.06c60.28 81.35 109 171.41 145.05 266.04-41.1-91.91-88.46-182.29-145.05-266.04z"/>
<path id="path32" d="m633.82 472.26c3.37 2.87 4.71 10.31 6.27 15.31 8.67-2.83 16.65-8.64 26.14-8.14-9.41 6.48-19.83 13.63-31.23 15.28-0.06-7.5-0.62-14.98-1.18-22.45z"/>
<path id="path34" d="m487.02 561.93c8.91 10.25 10.77 24.38 12.87 37.32-6.38-11.37-8.51-25.01-12.87-37.32z"/>
<path id="path36" d="m225.8 603.21c27.89 40.89 50.4 85.94 66.14 132.97 4.7 6.59-2.16 3.5-2.04 0.83-22.27-44.14-41.01-90.21-64.1-133.8z"/>
<path id="path38" d="m363.92 603c19.23 27.74 36.98 58.32 45 91.37-17.94-26.93-29.79-61.26-45-91.37z"/>
<path id="path40" d="m952.23 629.89c-4.85 47.06-19.63 95.24-26.48 143.02 1.62-47.13 10.19-97.62 26.48-143.02z"/>
<path id="path42" d="m213.19 736.63c4.68 1.22-1.54 5.17 0 0z"/>
<path id="path44" d="m591.62 750.52c3.89 1.24 12.91-3.66 14.51 1.29-37.68 8.06-76.15 11.71-113.92 19.27 30.67-11.43 65.82-17.88 99.41-20.56z"/>
<path id="path46" d="m590.57 862.5c6.51 0.6 16.16-2.79 21.47 0.33-57.32 10.04-115.14 17.35-172.33 28.15 49.1-14.52 99.81-23.94 150.86-28.48z"/>
<path id="path48" d="m896.03 889c10.57-1.73 6.29 3.54 0 0z"/>
</g>
</svg>
